<?xml version="1.0" encoding="UTF-8" standalone="no"?>
<svg
   xmlns:dc="http://purl.org/dc/elements/1.1/"
   xmlns:cc="http://creativecommons.org/ns#"
   xmlns:rdf="http://www.w3.org/1999/02/22-rdf-syntax-ns#"
   xmlns:svg="http://www.w3.org/2000/svg"
   xmlns="http://www.w3.org/2000/svg"
   id="svg375"
   version="1.1"
   viewBox="0 0 210 297"
   height="297mm"
   width="210mm">
  <defs
     id="defs369" />
  <metadata
     id="metadata372">
    <rdf:RDF>
      <cc:Work
         rdf:about="">
        <dc:format>image/svg+xml</dc:format>
        <dc:type
           rdf:resource="http://purl.org/dc/dcmitype/StillImage" />
        <dc:title></dc:title>
      </cc:Work>
    </rdf:RDF>
  </metadata>
  <g
     id="layer1">
    <path
       d="m 54.019296,113.06045 c -0.603348,1.91709 -1.674974,3.65137 -2.646746,5.39913 -1.201172,2.3335 -2.458958,4.63466 -3.834921,6.8706 -1.281605,2.31753 -2.808121,4.48289 -4.07371,6.809 -1.300515,2.33118 -2.779004,4.55236 -4.181044,6.82154 -1.506128,2.50469 -3.422227,4.70898 -5.380831,6.86309 -1.988783,1.93084 -3.57944,4.19655 -5.21716,6.4174 -1.131607,1.7667 -2.444743,3.43727 -3.323079,5.35081 -0.718971,1.86549 -0.839034,3.82744 -0.655014,5.79482 0.574089,2.10702 1.5742,4.0497 2.529692,6.00004 1.079754,2.26997 2.32981,4.45683 3.367445,6.74769 1.208923,2.31069 2.598885,4.51835 3.872674,6.79231 1.125958,2.25848 2.414138,4.42164 3.8939,6.46287 1.032922,1.49688 2.441458,2.6683 3.591525,4.0583 1.180539,1.10423 2.297589,2.25189 3.434906,3.39888 1.394004,1.35475 2.967458,2.39969 4.772247,3.11305 2.114735,0.71117 4.356843,0.78631 6.565799,0.85472 2.098112,0.20074 3.817049,-0.13326 5.784734,-0.7522 1.84523,-0.99855 3.694644,-1.98392 5.566595,-2.93074 -8.006411,4.92852 -2.658126,1.49654 -1.125466,-0.0306 0.536255,-0.53434 1.207254,-1.35603 1.688975,-1.92665 1.63562,-1.93937 2.603903,-4.27304 3.630227,-6.56169 0.864301,-2.1765 1.468773,-4.44944 1.873493,-6.75366 0.283337,-2.29051 0.293669,-4.56592 0.799978,-6.8234 0.587407,-2.21319 0.845325,-4.48198 0.998898,-6.75993 0.147941,-1.98613 -0.1006,-3.64516 -0.842481,-5.47467 -0.696217,-1.46302 -1.873219,-2.57011 -2.910843,-3.78694 -1.164175,-1.43746 -2.244706,-2.92286 -3.440486,-4.33311 -1.32893,-1.79637 -2.803649,-3.47363 -4.202697,-5.21196 -1.2798,-1.73589 -2.546863,-3.47295 -3.590081,-5.36521 -0.690515,-1.92523 -1.72839,-3.6902 -2.353421,-5.63986 -0.775803,-2.07091 -1.1201,-4.24765 -1.311129,-6.43955 -0.533493,-2.25213 -1.092041,-4.4851 -1.382387,-6.78451 -0.458767,-1.93982 -0.749321,-3.89892 -0.911336,-5.88383 -0.370705,-1.74022 -1.135076,-3.34462 -1.698361,-5.02111 -0.123065,-0.90534 -0.53417,-1.70759 -0.912177,-2.52416 0,0 5.075563,-2.86762 5.075563,-2.86762 v 0 c 0.380283,0.83513 0.810294,1.65849 0.946914,2.57842 0.56411,1.72587 1.346161,3.37773 1.733079,5.1622 0.147855,1.98128 0.457412,3.93316 0.865963,5.87744 0.284377,2.30699 0.805701,4.55448 1.397818,6.80069 0.186954,2.14857 0.489955,4.28748 1.277723,6.31115 0.612283,1.91398 1.620255,3.65365 2.295665,5.54337 1.025914,1.86049 2.248792,3.59046 3.515212,5.29245 1.400254,1.73763 2.850882,3.43024 4.247491,5.17113 1.182026,1.42056 2.248527,2.92332 3.463591,4.31655 1.067057,1.26953 2.288043,2.42069 2.977449,3.95773 0.819965,1.94292 1.060884,3.61806 0.909161,5.7366 -0.125796,2.30581 -0.369464,4.6086 -0.963596,6.84709 -0.06162,0.26687 -0.45208,1.91893 -0.486572,2.21783 -0.174466,1.51198 -0.0033,3.07138 -0.325704,4.57358 -0.368128,2.35337 -0.992378,4.66437 -1.832187,6.89281 -1.005118,2.33485 -1.990606,4.70331 -3.582551,6.71429 -2.998337,3.69608 -5.721043,5.61032 -10.309129,7.79209 -1.885699,1.00053 -3.764003,2.02184 -5.706391,2.90823 -1.905262,0.57258 -3.849859,0.68711 -5.835049,0.54912 -2.260235,-0.0834 -4.552802,-0.21403 -6.69249,-1.01663 -1.844643,-0.7852 -3.519405,-1.86232 -4.958371,-3.26952 -1.147582,-1.15573 -2.290313,-2.30698 -3.459612,-3.44164 -1.175406,-1.38594 -2.533573,-2.61462 -3.545634,-4.14046 -1.441622,-2.087 -2.764186,-4.25825 -3.886223,-6.53593 -1.291789,-2.28404 -2.673642,-4.51409 -3.910332,-6.82918 -1.029891,-2.2875 -2.28395,-4.46353 -3.36449,-6.72579 -1.002546,-2.00167 -2.043622,-3.99298 -2.691627,-6.14745 -0.226026,-2.04572 -0.09626,-4.09206 0.531612,-6.06628 0.827597,-1.99647 2.172003,-3.67061 3.319721,-5.4864 3.066467,-4.29133 -1.773558,2.42727 1.50057,-1.92921 1.188779,-1.58177 2.276163,-3.24422 3.766633,-4.58032 1.953064,-2.11414 3.870867,-4.27799 5.377336,-6.74334 1.388131,-2.269 2.878336,-4.46916 4.185091,-6.78748 1.25285,-2.34954 2.7973,-4.51416 4.07215,-6.85106 1.416142,-2.19458 2.642965,-4.50384 3.826393,-6.8311 0.913702,-1.66006 2.046663,-3.35439 2.477185,-5.20309 0,0 5.40992,-2.5407 5.40992,-2.5407 z"
       id="path379"
       style="fill:#000000;stroke-width:0.26458332" />
    <path
       d="m 171.24169,76.687549 c -0.006,1.835735 -0.0945,3.611698 -0.49423,5.406922 -0.72899,3.045166 -1.2883,6.119773 -2.03352,9.160981 -0.56988,3.064285 -1.41097,6.037408 -2.55863,8.931988 -0.96291,2.39251 -2.0748,4.74041 -3.2648,7.02975 -1.13898,2.26256 -2.26696,4.5274 -3.42696,6.77968 -1.52459,3.07661 -2.63073,6.33146 -3.84639,9.53741 -2.08196,5.52413 -4.05984,11.08498 -6.15651,16.60383 -2.21693,5.21905 -4.8955,10.23201 -7.65614,15.18058 -1.88793,3.52159 -4.28885,6.70498 -6.92079,9.69541 -2.16328,2.23384 -4.24508,4.52441 -6.21837,6.92787 -2.07185,2.392 -4.24137,4.68987 -6.26749,7.12175 -2.74603,3.26675 -4.84457,7.00271 -6.86306,10.74395 -1.9598,3.65538 -3.84303,7.35036 -5.73287,11.04237 -1.24394,2.27221 -1.69963,4.82415 -2.46811,7.26918 -0.73218,2.17517 -1.06816,4.37543 -0.63791,6.63713 0.65074,2.49551 1.70548,4.85548 3.01027,7.07188 1.91062,3.01508 3.89577,5.99395 6.05659,8.83602 2.24128,3.22994 5.32673,5.61388 8.59851,7.71359 3.99507,2.23305 8.30083,3.69553 12.75739,4.65937 4.94128,1.32155 10.00495,2.0739 15.0834,2.61443 5.38778,0.41296 10.80423,0.71929 16.20747,0.5022 1.83522,-0.12779 3.72266,-0.22373 5.52519,-0.63413 1.39554,-0.31773 2.70497,-0.96784 4.00882,-1.53601 0.39841,-0.22031 1.59124,-0.88553 1.19524,-0.66091 -9.70604,5.50539 1.42499,-0.85347 2.301,-1.3935 1.22388,-0.75446 -2.48407,1.45228 -3.76904,2.09722 -0.41336,0.20748 0.77308,-0.50858 1.1468,-0.78107 0.38216,-0.27864 0.74645,-0.58099 1.11968,-0.87149 2.40495,-1.92785 4.62311,-4.08034 6.79794,-6.26121 1.97466,-2.09008 3.62923,-4.433 5.31002,-6.75608 1.52608,-2.10996 2.81348,-4.33567 3.81031,-6.7395 1.15576,-2.17353 1.91746,-4.49771 2.56426,-6.86273 0.71077,-3.01475 0.80571,-6.12177 0.90268,-9.20354 0.1005,-3.78678 0.0634,-7.575 0.008,-11.36211 -0.0352,-2.54533 -0.0429,-5.09083 -0.0588,-7.63631 0.0408,-2.26617 -0.30266,-4.51938 -0.73953,-6.73664 -0.73294,-2.26548 -1.60313,-4.48111 -2.26466,-6.7701 -0.84058,-2.24526 -1.66765,-4.4941 -2.30966,-6.80544 -0.50287,-2.30513 -1.29875,-4.54188 -1.99539,-6.79642 -0.48575,-2.3084 -1.18415,-4.55898 -1.92074,-6.79847 -0.59213,-2.43335 -1.56128,-4.74167 -2.31758,-7.12385 -0.99164,-2.5591 -2.12029,-5.05242 -3.29311,-7.53076 -1.08567,-2.25114 -2.09254,-4.5602 -2.9532,-6.90859 -0.91885,-1.87452 -1.37473,-3.90746 -2.08993,-5.85828 -0.68357,-2.17395 -1.24697,-4.38288 -1.63913,-6.62763 -0.60267,-2.27585 -1.35816,-4.50602 -1.95084,-6.78484 -0.47577,-2.30875 -1.27632,-4.54427 -1.97353,-6.79586 -0.45341,-2.31723 -1.26435,-4.53239 -1.84755,-6.816127 -0.50136,-2.309159 -1.20577,-4.542353 -1.92807,-6.788822 -0.64071,-1.979893 -1.07275,-4.021121 -1.67516,-6.009677 -0.62298,-1.963578 -1.24976,-3.931065 -1.78008,-5.922772 -0.0635,-0.332229 -0.12706,-0.664458 -0.19059,-0.996688 0,0 5.11822,-2.73101 5.11822,-2.73101 v 0 c 0.0612,0.319315 0.1224,0.638632 0.1836,0.957948 0.50123,1.989174 1.09846,3.959669 1.7402,5.906661 0.66689,1.967592 1.01251,4.044098 1.65126,6.026129 0.70196,2.264407 1.45822,4.493879 1.94991,6.818238 0.54854,2.284878 1.40298,4.47668 1.8293,6.79146 0.67888,2.26696 1.51033,4.50177 1.98985,6.81839 0.56531,2.30093 1.33647,4.54298 1.97927,6.82288 0.35641,2.2157 0.92978,4.38602 1.59967,6.52654 0.72179,1.95296 1.22369,3.96559 2.0578,5.87838 0.84575,2.33751 1.84978,4.6273 2.90346,6.87601 1.18004,2.50304 2.29451,5.02823 3.3147,7.603 0.7788,2.37083 1.80173,4.65591 2.3649,7.09463 0.73564,2.24446 1.46007,4.49274 1.92867,6.80872 0.6773,2.26708 1.50324,4.50038 2.00636,6.8111 0.60673,2.3183 1.44233,4.56695 2.30619,6.80041 0.63174,2.31294 1.5162,4.54154 2.29282,6.80806 0.43617,2.25241 0.82735,4.53279 0.78908,6.83578 -0.0123,2.56177 -0.0131,5.12357 -0.0383,7.68528 -0.0431,3.80216 -0.0617,7.60438 -0.0673,11.40677 -0.0384,3.09618 -0.0454,6.21426 -0.71368,9.25453 -0.57154,2.39751 -1.33773,4.75423 -2.52316,6.92627 -0.9556,2.46734 -2.256,4.73163 -3.79451,6.88404 -1.68197,2.3562 -3.35376,4.71457 -5.3145,6.85345 -2.14447,2.2026 -4.36877,4.34281 -6.73432,6.30631 -2.59364,2.15026 -5.21362,3.3928 -8.22642,5.27527 -1.21865,0.76145 4.9628,-2.89981 3.72787,-2.16504 -5.77236,3.43447 -4.08661,2.54538 -7.2653,4.16423 -3.22647,1.33935 -5.94339,1.87746 -9.47431,1.86135 -5.37736,0.0791 -10.75623,-0.20772 -16.11392,-0.65641 -5.13627,-0.51423 -10.25795,-1.23047 -15.25245,-2.57196 -4.49759,-1.02462 -8.86085,-2.52273 -12.8924,-4.80082 -3.33961,-2.13008 -6.50405,-4.52773 -8.76393,-7.84249 -2.15772,-2.87206 -4.19795,-5.83757 -6.16229,-8.84496 -1.36637,-2.25584 -2.51742,-4.6292 -3.17904,-7.19451 -0.53385,-2.33531 -0.24468,-4.63795 0.51509,-6.90398 0.7769,-2.49471 1.26937,-5.09044 2.53048,-7.40751 1.94788,-3.71481 3.95859,-7.3956 5.88897,-11.1199 1.97022,-3.73578 4.0024,-7.48147 6.66374,-10.77968 2.0084,-2.42545 4.10765,-4.75861 6.21836,-7.0944 1.96636,-2.44197 4.0567,-4.75548 6.27005,-6.97711 2.6902,-2.98964 5.19485,-6.14331 7.15841,-9.66946 2.80411,-4.9417 5.5408,-9.93993 7.79972,-15.15829 2.0808,-5.47043 4.07457,-10.96772 5.96383,-16.50782 1.13839,-3.19245 2.17186,-6.42979 3.60418,-9.50518 1.18156,-2.24584 2.29858,-4.51484 3.42643,-6.78736 1.24566,-2.24777 2.29826,-4.62871 3.31098,-6.98607 1.21845,-2.867152 2.12428,-5.82668 2.68501,-8.895953 0.71738,-3.015384 1.27592,-6.047528 1.89034,-9.0855 0.41873,-1.757527 0.5617,-3.391218 0.36674,-5.195308 0,0 5.32863,-2.71507 5.32863,-2.71507 z"
       id="path385"
       style="fill:#000000;stroke-width:0.26458332" />
    <path
       d="m 104.53879,44.777936 c -0.97508,1.436383 -1.71353,3.076326 -2.42931,4.664051 -1.10438,2.165324 -2.117263,4.364294 -3.362353,6.452322 -1.1797,2.005476 -2.3804,4.004874 -3.396729,6.100202 -0.839345,2.122426 -1.769332,4.215339 -2.911086,6.193102 -1.182573,1.875951 -1.977583,3.939291 -3.007032,5.894382 -1.002027,1.84169 -1.275323,3.894762 -1.449765,5.949751 -0.131268,2.237135 -0.106257,4.479023 -0.109242,6.718835 -0.129016,2.428891 0.13928,4.426675 0.85448,6.736858 0.604324,2.035262 1.499674,3.969707 2.586199,5.790353 0.92574,1.438968 1.993022,2.888548 3.284617,4.027658 1.121518,1.44084 2.651048,2.25721 4.346548,2.83629 2.096993,0.56211 4.279233,0.6115 6.436183,0.65484 2.2666,-0.0207 4.5447,0.12871 6.80205,-0.10446 2.16886,-0.23585 4.32455,-0.43334 6.46696,-0.84043 1.74857,-0.94641 5.88245,-2.3451 -2.18919,1.32556 -0.34228,0.15565 0.58474,-0.47561 0.84674,-0.74531 0.35936,-0.36993 1.16473,-1.44705 1.46432,-1.838 1.46817,-1.95738 2.1298,-4.30681 2.97559,-6.558375 0.94371,-2.154647 1.41604,-4.43417 1.663,-6.760152 0.26416,-2.274276 0.27263,-3.927533 -1.26373,-5.726784 -1.59342,-1.792893 -3.08727,-3.673954 -4.69118,-5.453435 -1.32641,-1.415241 -2.55083,-2.920302 -4.00235,-4.213895 -1.09278,-1.265923 -1.93435,-2.701335 -2.82837,-4.107958 -0.92827,-1.691362 -1.14734,-3.625127 -1.72438,-5.446522 -0.61397,-2.20613 -1.02621,-4.465309 -1.43637,-6.717503 -0.77931,-1.914946 -1.40883,-3.846835 -1.73174,-5.890683 -0.33927,-1.859751 -0.45825,-3.809183 -1.02156,-5.616618 -0.59268,-1.66878 -1.36908,-3.247646 -1.82763,-4.961461 -0.21697,-0.590013 -0.46131,-1.062868 -1.00626,-1.375415 0,0 5.03105,-3.160287 5.03105,-3.160287 v 0 c 0.50738,0.506569 0.8601,1.069996 1.0999,1.756535 0.43964,1.707949 1.2217,3.280666 1.80261,4.942533 0.58639,1.834867 0.73307,3.80987 1.03425,5.7083 0.3215,2.042782 0.94642,3.970253 1.71056,5.889821 0.38186,2.229382 0.8159,4.46029 1.41229,6.641616 0.0423,0.130246 0.62777,1.926508 0.66167,2.059733 0.2809,1.103794 0.3923,2.251091 1.05179,3.228092 0.84198,1.378034 1.68683,2.750306 2.74232,3.976721 1.41308,1.348997 2.66036,2.846544 3.94212,4.317283 1.58909,1.807176 3.13864,3.646451 4.74318,5.442913 1.63003,1.985955 1.75964,3.642368 1.46855,6.141532 -0.24154,2.370498 -0.65571,4.707097 -1.6136,6.908374 -0.91836,2.25574 -1.47173,4.681245 -2.91224,6.704435 -0.47795,0.63446 -0.89266,1.31812 -1.40826,1.92238 -2.17621,2.55044 -5.50676,4.00689 -8.62711,5.10465 -2.14125,0.38532 -4.31334,0.50834 -6.47176,0.77222 -2.27674,0.14691 -4.561,0.0641 -6.84121,0.0552 -2.206633,-0.0683 -4.439133,-0.13947 -6.567825,-0.78834 -1.74547,-0.6569 -3.320114,-1.52688 -4.507543,-3.00601 -1.293971,-1.21748 -2.411997,-2.69194 -3.32714,-4.20627 -1.081916,-1.87848 -2.052791,-3.817854 -2.61294,-5.9234 -0.146511,-0.453181 -0.610929,-1.845048 -0.705967,-2.316644 -0.302046,-1.498806 -0.224793,-3.05149 -0.242858,-4.56851 -0.01249,-2.250773 -0.02614,-4.503714 0.07911,-6.752582 0.13267,-2.109787 0.359762,-4.24416 1.335813,-6.156322 0.318648,-0.616082 0.706625,-1.195888 1.004953,-1.822064 0.654199,-1.373129 1.128522,-2.836032 1.996697,-4.10887 1.213048,-1.926133 2.148668,-4.02884 2.965151,-6.15138 0.962361,-2.128549 2.182593,-4.127434 3.353419,-6.142408 0.38445,-0.650595 0.838986,-1.259457 1.201423,-1.922566 0.792344,-1.449665 1.334224,-3.045502 2.189904,-4.466524 0.69183,-1.605801 1.53403,-3.140434 2.14451,-4.777224 0,0 5.528773,-2.29009 5.528773,-2.29009 z"
       id="path387"
       style="fill:#000000;stroke-width:0.26458332" />
    <path
       d="m 76.351189,181.33929 a 20.032738,21.922617 0 0 1 -19.927061,21.92232 20.032738,21.922617 0 0 1 -20.1373,-21.69103 20.032738,21.922617 0 0 1 19.714603,-22.15116 20.032738,21.922617 0 0 1 20.345298,21.45732 l -20.028278,0.46255 z"
       id="path389"
       style="fill:#000000;stroke-width:0.26458332" />
    <path
       d="m 181.41856,213.37187 a 34.201843,34.300446 0 0 1 -34.02142,34.29997 34.201843,34.300446 0 0 1 -34.38036,-33.93809 34.201843,34.300446 0 0 1 33.65869,-34.65803 34.201843,34.300446 0 0 1 34.73548,33.57243 l -34.19423,0.72372 z"
       id="path389-2"
       style="fill:#000000;stroke-width:0.43243489" />
    <path
       d="M 118.60238,98.142052 A 12.657193,10.487946 0 0 1 106.01196,108.62985 12.657193,10.487946 0 0 1 93.288702,98.252703 12.657193,10.487946 0 0 1 105.74489,87.655419 12.657193,10.487946 0 0 1 118.59957,97.920762 l -12.65438,0.22129 z"
       id="path389-2-3"
       style="fill:#000000;stroke-width:0.14546554" />
    <path
       d="m 56.318451,181.33929 c 1.386187,1.67072 -1.568195,2.69283 -2.776838,2.30394 -3.275349,-1.05387 -3.414264,-5.38776 -1.831029,-7.85761 2.832037,-4.41799 9.115003,-4.38164 12.938381,-1.35813 5.610961,4.43713 5.383075,12.89477 0.885219,18.01916 -5.994934,6.83 -16.69342,6.39935 -23.099923,0.41231 -8.061931,-7.53408 -7.423372,-20.50114 0.06059,-28.18069 9.064081,-9.30097 24.313992,-8.45189 33.261466,0.53349 10.544289,10.58896 9.483223,28.13003 -1.0064,38.34224 -12.110685,11.79039 -31.948203,10.51644 -43.423008,-1.47931 -13.038403,-13.63033 -11.550984,-35.76787 1.952209,-48.50378 15.148542,-14.28776 39.588633,-12.58647 53.584551,2.42512 15.538121,16.66571 13.622691,43.41021 -2.898019,58.66532"
       id="path423"
       style="fill:none;fill-rule:evenodd;stroke:#000000;stroke-width:0.26458332" />
    <path
       transform="matrix(1.3343514,0,0,1.3690588,-28.945208,-59.060864)"
       d="m 133.99553,188.03043 c 1.38619,1.67071 -1.5682,2.69282 -2.77684,2.30393 -3.27535,-1.05387 -3.41426,-5.38776 -1.83103,-7.85761 2.83204,-4.41799 9.115,-4.38164 12.93838,-1.35812 5.61096,4.43712 5.38308,12.89476 0.88522,18.01915 -5.99493,6.83 -16.69342,6.39935 -23.09992,0.41231 -8.06193,-7.53407 -7.42337,-20.50114 0.0606,-28.18069 9.06408,-9.30097 24.31399,-8.45189 33.26147,0.53349 10.54428,10.58896 9.48322,28.13003 -1.0064,38.34224 -12.11069,11.7904 -31.94821,10.51645 -43.42301,-1.4793 -13.038405,-13.63034 -11.550987,-35.76788 1.95221,-48.50378 15.14854,-14.28777 39.58863,-12.58648 53.58455,2.42511 15.53812,16.66571 13.62269,43.41021 -2.89802,58.66532"
       id="path423-4"
       style="fill:none;fill-rule:evenodd;stroke:#000000;stroke-width:0.26458332" />
    <path
       transform="matrix(0.60428643,0,0,0.54285945,44.269208,45.603284)"
       d="m 95.441948,77.661377 c 1.386187,1.670715 -1.568195,2.692824 -2.776838,2.303933 -3.275349,-1.053869 -3.414264,-5.387754 -1.831029,-7.857609 2.832037,-4.417991 9.115003,-4.381636 12.938379,-1.358124 5.61096,4.437126 5.38308,12.894763 0.88522,18.019152 -5.994933,6.830005 -16.693419,6.399352 -23.099922,0.412314 -8.061931,-7.534076 -7.423372,-20.501145 0.06059,-28.180694 9.064081,-9.300963 24.313992,-8.451886 33.261462,0.533495 10.54429,10.58896 9.48323,28.130031 -1.0064,38.342237 C 101.76273,111.66648 81.925211,110.39253 70.450406,98.396777 57.412003,84.766443 58.899422,62.628904 72.402615,49.892997 87.551157,35.605234 111.99125,37.306518 125.98717,52.318111 c 15.53812,16.665713 13.62268,43.410215 -2.89802,58.665319"
       id="path423-6"
       style="fill:none;fill-rule:evenodd;stroke:#000000;stroke-width:0.26458332" />
  </g>
</svg>
