<!-- Generated by IcoMoon.io -->
<svg version="1.1" xmlns="http://www.w3.org/2000/svg" width="18" height="32" viewBox="0 0 18 32">
<title>Arrow</title>
<path fill="black" d="M2.348 12.479l1.324 0.912-1.319-0.924c0 0.002-0.002 0.007-0.005 0.012z"></path>
<path  d="M6.158 23.412v0c5.51-3.675 3.366-8.818-4.231-10.147l4.231 10.147z"></path>
<path d="M8.142 14.767l1.866-0.681-0.084-0.091-1.866 0.681z"></path>
<path d="M9.607 13.884c0.297 0.043 0.499 0.42 0.499 0.42l0.357-0.513"></path>
<path d="M9.967 15.858l1.866-0.681-0.084-0.094-1.866 0.681z"></path>
<path d="M11.433 14.973c0.297 0.043 0.499 0.42 0.499 0.42l0.357-0.513"></path>
<path d="M10.173 17.259l1.869-0.681-0.084-0.091-1.869 0.681z"></path>
<path d="M11.641 16.377c0.297 0.043 0.499 0.42 0.499 0.42l0.357-0.513"></path>
<path d="M10.507 18.871l1.866-0.681-0.084-0.094-1.869 0.681z"></path>
<path d="M11.972 17.986c0.297 0.043 0.499 0.42 0.499 0.42l0.357-0.513"></path>
<path d="M14.033 16.377l1.866-0.681-0.084-0.091-1.869 0.681z"></path>
<path d="M15.499 15.494c0.297 0.043 0.499 0.42 0.499 0.42l0.357-0.513"></path>
<path d="M12.373 14.637l1.866-0.681-0.084-0.091-1.866 0.681z"></path>
<path d="M13.839 13.755c0.297 0.043 0.499 0.42 0.499 0.42l0.357-0.513"></path>
<path d="M10.754 13.416l1.869-0.681-0.084-0.091-1.869 0.681z"></path>
<path d="M12.222 12.534c0.297 0.043 0.499 0.42 0.499 0.42l0.357-0.513"></path>
<path d="M12.788 15.676l1.866-0.681-0.084-0.091-1.866 0.681z"></path>
<path d="M14.254 14.793c0.297 0.043 0.499 0.42 0.499 0.42l0.357-0.513"></path>
<path d="M11.377 18.039l1.866-0.681-0.084-0.091-1.866 0.681z"></path>
<path d="M12.843 17.156c0.297 0.043 0.499 0.42 0.499 0.42l0.357-0.513"></path>
<path d="M14.53 17.545l1.869-0.681-0.084-0.091-1.869 0.681z"></path>
<path d="M15.995 16.662c0.297 0.043 0.499 0.42 0.499 0.42l0.357-0.513"></path>
<path d="M10.049 20.481l1.871-0.684-0.084-0.091-1.871 0.681z"></path>
<path d="M11.517 19.596c0.297 0.043 0.499 0.42 0.499 0.42l0.357-0.513"></path>
<path d="M13.119 19.104l1.869-0.681-0.084-0.091-1.869 0.681z"></path>
<path d="M14.585 18.219c0.297 0.043 0.499 0.42 0.499 0.42l0.357-0.513"></path>
<path d="M9.303 21.831l1.869-0.681-0.084-0.094-1.869 0.681z"></path>
<path d="M10.768 20.946c0.297 0.043 0.499 0.42 0.499 0.42l0.357-0.513"></path>
<path d="M12.579 20.375l1.869-0.681-0.084-0.091-1.869 0.681z"></path>
<path d="M14.047 19.493c0.297 0.043 0.499 0.42 0.499 0.42l0.357-0.513"></path>
<path d="M14.614 20.402l1.866-0.681-0.084-0.091-1.866 0.681z"></path>
<path d="M16.079 19.519c0.297 0.043 0.499 0.42 0.499 0.42l0.357-0.513"></path>
<path d="M8.972 12.663l1.866-0.681-0.084-0.091-1.866 0.681z"></path>
<path d="M10.437 11.78c0.297 0.043 0.499 0.42 0.499 0.42l0.357-0.513"></path>
<path d="M8.972 12.69l1.866-0.681-0.084-0.091-1.866 0.681z"></path>
<path d="M10.437 11.807c0.297 0.043 0.499 0.42 0.499 0.42l0.357-0.513"></path>
</svg>
