<!-- Generated by IcoMoon.io -->
<svg version="1.1" xmlns="http://www.w3.org/2000/svg" width="18" height="32" viewBox="0 0 18 32">
<title>DualWield</title>
<path fill="none" d="M0.758 17.298c-0.050-4.579 3.622-8.333 8.201-8.384s8.333 3.622 8.384 8.201c0 0.043 0 0.089 0 0.089s0.002 0.425-0.043 0.852c-0.345 3.222-3.054 5.464-3.054 5.464-0.509 0.422-2.459 1.989-5.105 1.979-3.761-0.014-8.329-3.217-8.384-8.201z"></path>
<path d="M9.804 17.466l-3.733 5.623 0.321 0.266 3.836-4.975-0.425-0.914z"></path>
<path d="M5.366 22.376l1.619 1.372-0.271 0.386-1.298-1.139z"></path>
<path d="M5.891 23.067l-0.391 0.888c-0.026 0.058-0.022 0.127 0.012 0.18l0.048 0.079c0.082 0.139 0.285 0.125 0.35-0.022l0.321-0.727z"></path>
<path d="M14.335 13.049l-7.94 10.303 7.405-12.795z"></path>
<path d="M7.767 17.917l4.004 5.263-0.23 0.326-3.992-4.577 0.218-1.012z"></path>
<path d="M12.255 22.333l-1.151 1.67 0.285 0.362 0.919-1.384z"></path>
<path d="M11.92 23.129l0.473 0.873c0.026 0.050 0.034 0.108 0.017 0.161v0c-0.055 0.177-0.295 0.201-0.384 0.038l-0.329-0.607z"></path>
<path d="M3.274 14.028l8.264 9.475-8.199-12.145z"></path>
</svg>
