<!-- Generated by IcoMoon.io -->
<svg version="1.1" xmlns="http://www.w3.org/2000/svg" width="32" height="32" viewBox="0 0 32 32">
<title>Shield</title>
<path d="M5.029 4.324l11.53 27.609 9.198-28.574-20.728 0.965z"></path>
<path fill="#e6e7e8" style="fill: var(--color1, #e6e7e8)" d="M22.419 6.449l0.101 0.067c5.079 3.396 6.319 10.333 2.729 15.277l-1.143 1.575c-3.442 4.741-10.044 5.864-14.857 2.521v0c-4.745-3.294-6.046-9.741-2.952-14.616l1.042-1.642c3.241-5.107 10.052-6.543 15.081-3.181z"></path>
<path d="M29.252 24.405l2.63-7.341-6.144-13.692"></path>
<path d="M5.029 4.324l-4.441 15.795 3.079 5.693"></path>
<path d="M9.339 12.252l13.318-0.416c1.145-0.036 1.502 1.351 0.642 2.498l-4.968 8.184c-0.66 0.881-2.197 3.184-2.764 2.623l-7.877-9.795c-0.933-0.92 0.202-3.047 1.649-3.093z"></path>
</svg>
