<!-- Generated by IcoMoon.io -->
<svg version="1.1" xmlns="http://www.w3.org/2000/svg" width="32" height="32" viewBox="0 0 32 32">
<title>SpecialPower</title>
<path d="M10.932 15.986l0.713-2.843-1.358-5.195"></path>
<path d="M5.241 8.519l-1.237 6.107 0.692 2.154"></path>
<path d="M27.405 24.824l0.713-2.843-1.358-5.195"></path>
<path d="M21.714 17.357l-1.237 6.107 0.692 2.154"></path>
<path d="M17.225 24.037l0.713-2.843-1.358-5.195"></path>
<path d="M11.534 16.571l-1.237 6.107 0.692 2.154"></path>
<path d="M22.824 13.348l0.713-2.843-1.358-5.195"></path>
<path d="M17.133 5.882l-1.237 6.107 0.692 2.154"></path>
<path d="M30.552 17.744l0.713-2.843-1.358-5.195"></path>
<path d="M24.861 10.278l-1.237 6.107 0.692 2.154"></path>
<path d="M13.384 27.647l0.713-2.843-1.358-5.195"></path>
<path d="M7.693 20.18l-1.237 6.107 0.692 2.154"></path>
<path d="M8.341 19.595l0.713-2.843-1.358-5.195"></path>
<path d="M2.65 12.129l-1.237 6.107 0.692 2.154"></path>
<path d="M10.289 1.382h10.319c0.728 0 1.319 0.59 1.319 1.319s-0.59 1.319-1.319 1.319h-10.319c-0.728 0-1.319-0.59-1.319-1.319s0.59-1.319 1.319-1.319z"></path>
<path fill="#231f20" style="fill: var(--color4, #231f20)" d="M4.105 5.509c1.943 0.376 3.69-0.736 5.038-2.017 0.065-0.062-0.033-0.16-0.098-0.098-1.308 1.243-3.014 2.347-4.905 1.981-0.087-0.017-0.124 0.117-0.037 0.134z"></path>
<path fill="#231f20" style="fill: var(--color4, #231f20)" d="M27.751 5.741l-5.738-3.062c-0.079-0.042-0.149 0.078-0.070 0.12l5.738 3.062c0.079 0.042 0.149-0.078 0.070-0.12z"></path>
<path fill="#fff" style="fill: var(--color5, #fff)" d="M13.175 1.204l4.101-0.093c0.353-0.008 0.466 0.416 0.204 0.767l-1.51 2.496c-0.201 0.268-0.669 0.972-0.845 0.797l-2.452-3.022c-0.287-0.285 0.057-0.935 0.502-0.945z"></path>
<path fill="#231f20" style="fill: var(--color4, #231f20)" d="M4.216 5.606c0.43 0.273 0.892 0.558 1.411 0.611 0.467 0.046 0.869-0.154 1.262-0.38 0.413-0.238 0.875-0.526 1.365-0.341 0.416 0.157 0.703 0.538 1.094 0.745 0.683 0.363 1.388-0.015 1.992-0.359 0.345-0.197 0.694-0.416 1.083-0.513 0.504-0.127 0.86 0.080 1.246 0.39 0.291 0.231 0.595 0.4 0.976 0.379 0.324-0.017 0.633-0.143 0.923-0.285 0.597-0.292 1.331-0.896 2.039-0.71 0.47 0.124 0.671 0.599 1.034 0.874 0.34 0.258 0.758 0.267 1.145 0.118 0.905-0.349 1.425-1.296 2.386-1.537 0.259-0.065 0.548-0.068 0.778 0.086s0.324 0.411 0.433 0.652c0.19 0.424 0.497 0.697 0.986 0.614 0.576-0.098 1.052-0.47 1.645-0.521 0.061-0.005 0.133-0.009 0.205-0.009 0.579 0 1.111 0.2 1.532 0.534l-0.005-0.004c0.069 0.055 0.168-0.043 0.098-0.098-0.44-0.352-1.006-0.566-1.621-0.566-0.354 0-0.691 0.070-0.998 0.198l0.017-0.006c-0.468 0.192-1.182 0.628-1.581 0.084-0.24-0.328-0.278-0.761-0.642-0.999-0.705-0.463-1.635 0.185-2.148 0.652-0.391 0.358-0.847 0.761-1.385 0.864-0.624 0.12-0.915-0.35-1.296-0.733-1.217-1.223-2.549 0.932-3.857 0.628-0.463-0.107-0.734-0.549-1.169-0.714-0.32-0.121-0.664-0.079-0.978 0.036-0.723 0.263-1.356 0.899-2.146 0.955-0.521 0.037-0.875-0.302-1.259-0.598-0.377-0.291-0.782-0.446-1.253-0.292-0.478 0.156-0.864 0.509-1.346 0.661-0.686 0.213-1.338-0.181-1.897-0.537-0.075-0.046-0.145 0.072-0.070 0.12z"></path>
</svg>
