<!-- Generated by IcoMoon.io -->
<svg version="1.1" xmlns="http://www.w3.org/2000/svg" width="32" height="32" viewBox="0 0 32 32">
<title>Sword</title>
<path d="M31.919 14.46l-11.978 6.453c-0.208-0.586-0.278-1.751-0.486-2.337-0.471-0.206-1.081 0.167-1.551-0.039l-0.254-2.136-1.759-0.21 0.046-2.104-2.268-0.484-0.648-2.941-2.040-0.195-0.413-2.582c-0.795-0.139-2.075-0.393-2.87-0.532l-0.463-2.453-2.106-0.648-0.87 0.87-2.445 3.48 13.653 14.996-8.811 5.091 3.888 2.083 7.701-3.518 3.98 3.517 2.181-1.389 2.17-1.759-3.147-3.332 8.475-6.503z"></path>
<path d="M17.028 24.132l3.332-1.922c0.062-0.036 0.136-0.057 0.215-0.057 0.237 0 0.429 0.191 0.43 0.428v2.252c-0 0.237-0.193 0.43-0.43 0.43-0.015 0-0.030-0.001-0.044-0.002l0.002 0-3.332-0.33c-0.216-0.024-0.383-0.206-0.383-0.427 0-0.157 0.084-0.294 0.209-0.369l0.002-0.001z"></path>
</svg>
