<svg aria-hidden="true" style="position: absolute; width: 0; height: 0; overflow: hidden;" version="1.1" xmlns="http://www.w3.org/2000/svg" xmlns:xlink="http://www.w3.org/1999/xlink">
<defs>
<symbol id="icon-Arrow" viewBox="0 0 18 32">
<title>Arrow</title>

<path fill="black" d="M2.348 12.479l1.324 0.912-1.319-0.924c0 0.002-0.002 0.007-0.005 0.012z"></path>
<path  d="M6.158 23.412v0c5.51-3.675 3.366-8.818-4.231-10.147l4.231 10.147z"></path>
<path d="M8.142 14.767l1.866-0.681-0.084-0.091-1.866 0.681z"></path>
<path d="M9.607 13.884c0.297 0.043 0.499 0.42 0.499 0.42l0.357-0.513"></path>
<path d="M9.967 15.858l1.866-0.681-0.084-0.094-1.866 0.681z"></path>
<path d="M11.433 14.973c0.297 0.043 0.499 0.42 0.499 0.42l0.357-0.513"></path>
<path d="M10.173 17.259l1.869-0.681-0.084-0.091-1.869 0.681z"></path>
<path d="M11.641 16.377c0.297 0.043 0.499 0.42 0.499 0.42l0.357-0.513"></path>
<path d="M10.507 18.871l1.866-0.681-0.084-0.094-1.869 0.681z"></path>
<path d="M11.972 17.986c0.297 0.043 0.499 0.42 0.499 0.42l0.357-0.513"></path>
<path d="M14.033 16.377l1.866-0.681-0.084-0.091-1.869 0.681z"></path>
<path d="M15.499 15.494c0.297 0.043 0.499 0.42 0.499 0.42l0.357-0.513"></path>
<path d="M12.373 14.637l1.866-0.681-0.084-0.091-1.866 0.681z"></path>
<path d="M13.839 13.755c0.297 0.043 0.499 0.42 0.499 0.42l0.357-0.513"></path>
<path d="M10.754 13.416l1.869-0.681-0.084-0.091-1.869 0.681z"></path>
<path d="M12.222 12.534c0.297 0.043 0.499 0.42 0.499 0.42l0.357-0.513"></path>
<path d="M12.788 15.676l1.866-0.681-0.084-0.091-1.866 0.681z"></path>
<path d="M14.254 14.793c0.297 0.043 0.499 0.42 0.499 0.42l0.357-0.513"></path>
<path d="M11.377 18.039l1.866-0.681-0.084-0.091-1.866 0.681z"></path>
<path d="M12.843 17.156c0.297 0.043 0.499 0.42 0.499 0.42l0.357-0.513"></path>
<path d="M14.53 17.545l1.869-0.681-0.084-0.091-1.869 0.681z"></path>
<path d="M15.995 16.662c0.297 0.043 0.499 0.42 0.499 0.42l0.357-0.513"></path>
<path d="M10.049 20.481l1.871-0.684-0.084-0.091-1.871 0.681z"></path>
<path d="M11.517 19.596c0.297 0.043 0.499 0.42 0.499 0.42l0.357-0.513"></path>
<path d="M13.119 19.104l1.869-0.681-0.084-0.091-1.869 0.681z"></path>
<path d="M14.585 18.219c0.297 0.043 0.499 0.42 0.499 0.42l0.357-0.513"></path>
<path d="M9.303 21.831l1.869-0.681-0.084-0.094-1.869 0.681z"></path>
<path d="M10.768 20.946c0.297 0.043 0.499 0.42 0.499 0.42l0.357-0.513"></path>
<path d="M12.579 20.375l1.869-0.681-0.084-0.091-1.869 0.681z"></path>
<path d="M14.047 19.493c0.297 0.043 0.499 0.42 0.499 0.42l0.357-0.513"></path>
<path d="M14.614 20.402l1.866-0.681-0.084-0.091-1.866 0.681z"></path>
<path d="M16.079 19.519c0.297 0.043 0.499 0.42 0.499 0.42l0.357-0.513"></path>
<path d="M8.972 12.663l1.866-0.681-0.084-0.091-1.866 0.681z"></path>
<path d="M10.437 11.78c0.297 0.043 0.499 0.42 0.499 0.42l0.357-0.513"></path>
<path d="M8.972 12.69l1.866-0.681-0.084-0.091-1.866 0.681z"></path>
<path d="M10.437 11.807c0.297 0.043 0.499 0.42 0.499 0.42l0.357-0.513"></path>
</symbol>
<symbol id="icon-DualWield" viewBox="0 0 18 32">
<title>DualWield</title>
<path fill="none" d="M0.758 17.298c-0.050-4.579 3.622-8.333 8.201-8.384s8.333 3.622 8.384 8.201c0 0.043 0 0.089 0 0.089s0.002 0.425-0.043 0.852c-0.345 3.222-3.054 5.464-3.054 5.464-0.509 0.422-2.459 1.989-5.105 1.979-3.761-0.014-8.329-3.217-8.384-8.201z"></path>
<path d="M9.804 17.466l-3.733 5.623 0.321 0.266 3.836-4.975-0.425-0.914z"></path>
<path d="M5.366 22.376l1.619 1.372-0.271 0.386-1.298-1.139z"></path>
<path d="M5.891 23.067l-0.391 0.888c-0.026 0.058-0.022 0.127 0.012 0.18l0.048 0.079c0.082 0.139 0.285 0.125 0.35-0.022l0.321-0.727z"></path>
<path d="M14.335 13.049l-7.94 10.303 7.405-12.795z"></path>
<path d="M7.767 17.917l4.004 5.263-0.23 0.326-3.992-4.577 0.218-1.012z"></path>
<path d="M12.255 22.333l-1.151 1.67 0.285 0.362 0.919-1.384z"></path>
<path d="M11.92 23.129l0.473 0.873c0.026 0.050 0.034 0.108 0.017 0.161v0c-0.055 0.177-0.295 0.201-0.384 0.038l-0.329-0.607z"></path>
<path d="M3.274 14.028l8.264 9.475-8.199-12.145z"></path>
</symbol>
<symbol id="icon-Shield" viewBox="0 0 32 32">
<title>Shield</title>

<path d="M5.029 4.324l11.53 27.609 9.198-28.574-20.728 0.965z"></path>
<path fill="#e6e7e8" style="fill: var(--color1, #e6e7e8)" d="M22.419 6.449l0.101 0.067c5.079 3.396 6.319 10.333 2.729 15.277l-1.143 1.575c-3.442 4.741-10.044 5.864-14.857 2.521v0c-4.745-3.294-6.046-9.741-2.952-14.616l1.042-1.642c3.241-5.107 10.052-6.543 15.081-3.181z"></path>
<path d="M29.252 24.405l2.63-7.341-6.144-13.692"></path>
<path d="M5.029 4.324l-4.441 15.795 3.079 5.693"></path>
<path d="M9.339 12.252l13.318-0.416c1.145-0.036 1.502 1.351 0.642 2.498l-4.968 8.184c-0.66 0.881-2.197 3.184-2.764 2.623l-7.877-9.795c-0.933-0.92 0.202-3.047 1.649-3.093z"></path>
</symbol>
<symbol id="icon-SpecialPower" viewBox="0 0 32 32">
<title>SpecialPower</title>
<path d="M10.932 15.986l0.713-2.843-1.358-5.195"></path>
<path d="M5.241 8.519l-1.237 6.107 0.692 2.154"></path>
<path d="M27.405 24.824l0.713-2.843-1.358-5.195"></path>
<path d="M21.714 17.357l-1.237 6.107 0.692 2.154"></path>
<path d="M17.225 24.037l0.713-2.843-1.358-5.195"></path>
<path d="M11.534 16.571l-1.237 6.107 0.692 2.154"></path>
<path d="M22.824 13.348l0.713-2.843-1.358-5.195"></path>
<path d="M17.133 5.882l-1.237 6.107 0.692 2.154"></path>
<path d="M30.552 17.744l0.713-2.843-1.358-5.195"></path>
<path d="M24.861 10.278l-1.237 6.107 0.692 2.154"></path>
<path d="M13.384 27.647l0.713-2.843-1.358-5.195"></path>
<path d="M7.693 20.18l-1.237 6.107 0.692 2.154"></path>
<path d="M8.341 19.595l0.713-2.843-1.358-5.195"></path>
<path d="M2.65 12.129l-1.237 6.107 0.692 2.154"></path>
<path d="M10.289 1.382h10.319c0.728 0 1.319 0.59 1.319 1.319s-0.59 1.319-1.319 1.319h-10.319c-0.728 0-1.319-0.59-1.319-1.319s0.59-1.319 1.319-1.319z"></path>
<path fill="#231f20" style="fill: var(--color4, #231f20)" d="M4.105 5.509c1.943 0.376 3.69-0.736 5.038-2.017 0.065-0.062-0.033-0.16-0.098-0.098-1.308 1.243-3.014 2.347-4.905 1.981-0.087-0.017-0.124 0.117-0.037 0.134z"></path>
<path fill="#231f20" style="fill: var(--color4, #231f20)" d="M27.751 5.741l-5.738-3.062c-0.079-0.042-0.149 0.078-0.070 0.12l5.738 3.062c0.079 0.042 0.149-0.078 0.070-0.12z"></path>
<path fill="#fff" style="fill: var(--color5, #fff)" d="M13.175 1.204l4.101-0.093c0.353-0.008 0.466 0.416 0.204 0.767l-1.51 2.496c-0.201 0.268-0.669 0.972-0.845 0.797l-2.452-3.022c-0.287-0.285 0.057-0.935 0.502-0.945z"></path>
<path fill="#231f20" style="fill: var(--color4, #231f20)" d="M4.216 5.606c0.43 0.273 0.892 0.558 1.411 0.611 0.467 0.046 0.869-0.154 1.262-0.38 0.413-0.238 0.875-0.526 1.365-0.341 0.416 0.157 0.703 0.538 1.094 0.745 0.683 0.363 1.388-0.015 1.992-0.359 0.345-0.197 0.694-0.416 1.083-0.513 0.504-0.127 0.86 0.080 1.246 0.39 0.291 0.231 0.595 0.4 0.976 0.379 0.324-0.017 0.633-0.143 0.923-0.285 0.597-0.292 1.331-0.896 2.039-0.71 0.47 0.124 0.671 0.599 1.034 0.874 0.34 0.258 0.758 0.267 1.145 0.118 0.905-0.349 1.425-1.296 2.386-1.537 0.259-0.065 0.548-0.068 0.778 0.086s0.324 0.411 0.433 0.652c0.19 0.424 0.497 0.697 0.986 0.614 0.576-0.098 1.052-0.47 1.645-0.521 0.061-0.005 0.133-0.009 0.205-0.009 0.579 0 1.111 0.2 1.532 0.534l-0.005-0.004c0.069 0.055 0.168-0.043 0.098-0.098-0.44-0.352-1.006-0.566-1.621-0.566-0.354 0-0.691 0.070-0.998 0.198l0.017-0.006c-0.468 0.192-1.182 0.628-1.581 0.084-0.24-0.328-0.278-0.761-0.642-0.999-0.705-0.463-1.635 0.185-2.148 0.652-0.391 0.358-0.847 0.761-1.385 0.864-0.624 0.12-0.915-0.35-1.296-0.733-1.217-1.223-2.549 0.932-3.857 0.628-0.463-0.107-0.734-0.549-1.169-0.714-0.32-0.121-0.664-0.079-0.978 0.036-0.723 0.263-1.356 0.899-2.146 0.955-0.521 0.037-0.875-0.302-1.259-0.598-0.377-0.291-0.782-0.446-1.253-0.292-0.478 0.156-0.864 0.509-1.346 0.661-0.686 0.213-1.338-0.181-1.897-0.537-0.075-0.046-0.145 0.072-0.070 0.12z"></path>
</symbol>
<symbol id="icon-Sword" viewBox="0 0 32 32">
<title>Sword</title>
<path d="M31.919 14.46l-11.978 6.453c-0.208-0.586-0.278-1.751-0.486-2.337-0.471-0.206-1.081 0.167-1.551-0.039l-0.254-2.136-1.759-0.21 0.046-2.104-2.268-0.484-0.648-2.941-2.040-0.195-0.413-2.582c-0.795-0.139-2.075-0.393-2.87-0.532l-0.463-2.453-2.106-0.648-0.87 0.87-2.445 3.48 13.653 14.996-8.811 5.091 3.888 2.083 7.701-3.518 3.98 3.517 2.181-1.389 2.17-1.759-3.147-3.332 8.475-6.503z"></path>
<path d="M17.028 24.132l3.332-1.922c0.062-0.036 0.136-0.057 0.215-0.057 0.237 0 0.429 0.191 0.43 0.428v2.252c-0 0.237-0.193 0.43-0.43 0.43-0.015 0-0.030-0.001-0.044-0.002l0.002 0-3.332-0.33c-0.216-0.024-0.383-0.206-0.383-0.427 0-0.157 0.084-0.294 0.209-0.369l0.002-0.001z"></path>
</symbol>
<symbol id="icon-AhriW" viewBox="0 0 23 32">
<title>AhriW</title>
<path d="M5.82 12.182c-0.065 0.207-0.18 0.393-0.285 0.582-0.129 0.251-0.265 0.499-0.413 0.74-0.138 0.25-0.303 0.483-0.439 0.734-0.14 0.251-0.299 0.491-0.45 0.735-0.162 0.27-0.369 0.507-0.58 0.739-0.214 0.208-0.386 0.452-0.562 0.691-0.122 0.19-0.263 0.37-0.358 0.577-0.077 0.201-0.090 0.412-0.071 0.624 0.062 0.227 0.17 0.436 0.273 0.646 0.116 0.245 0.251 0.48 0.363 0.727 0.13 0.249 0.28 0.487 0.417 0.732 0.121 0.243 0.26 0.476 0.42 0.696 0.111 0.161 0.263 0.288 0.387 0.437 0.127 0.119 0.248 0.243 0.37 0.366 0.15 0.146 0.32 0.259 0.514 0.335 0.228 0.077 0.469 0.085 0.707 0.092 0.226 0.022 0.411-0.014 0.623-0.081 0.199-0.108 0.398-0.214 0.6-0.316-0.863 0.531-0.286 0.161-0.121-0.003 0.058-0.058 0.13-0.146 0.182-0.208 0.176-0.209 0.281-0.46 0.391-0.707 0.093-0.235 0.158-0.479 0.202-0.728 0.031-0.247 0.032-0.492 0.086-0.735 0.063-0.238 0.091-0.483 0.108-0.728 0.016-0.214-0.011-0.393-0.091-0.59-0.075-0.158-0.202-0.277-0.314-0.408-0.125-0.155-0.242-0.315-0.371-0.467-0.143-0.194-0.302-0.374-0.453-0.562-0.138-0.187-0.274-0.374-0.387-0.578-0.074-0.207-0.186-0.398-0.254-0.608-0.084-0.223-0.121-0.458-0.141-0.694-0.057-0.243-0.118-0.483-0.149-0.731-0.049-0.209-0.081-0.42-0.098-0.634-0.040-0.188-0.122-0.36-0.183-0.541-0.013-0.098-0.058-0.184-0.098-0.272 0 0 0.547-0.309 0.547-0.309v0c0.041 0.090 0.087 0.179 0.102 0.278 0.061 0.186 0.145 0.364 0.187 0.556 0.016 0.213 0.049 0.424 0.093 0.633 0.031 0.249 0.087 0.491 0.151 0.733 0.020 0.232 0.053 0.462 0.138 0.68 0.066 0.206 0.175 0.394 0.247 0.597 0.111 0.2 0.242 0.387 0.379 0.57 0.151 0.187 0.307 0.37 0.458 0.557 0.127 0.153 0.242 0.315 0.373 0.465 0.115 0.137 0.247 0.261 0.321 0.426 0.088 0.209 0.114 0.39 0.098 0.618-0.014 0.248-0.040 0.497-0.104 0.738-0.007 0.029-0.049 0.207-0.052 0.239-0.019 0.163-0 0.331-0.035 0.493-0.040 0.254-0.107 0.503-0.197 0.743-0.108 0.252-0.214 0.507-0.386 0.723-0.323 0.398-0.616 0.604-1.111 0.84-0.203 0.108-0.406 0.218-0.615 0.313-0.205 0.062-0.415 0.074-0.629 0.059-0.244-0.009-0.491-0.023-0.721-0.11-0.199-0.085-0.379-0.201-0.534-0.352-0.124-0.125-0.247-0.249-0.373-0.371-0.127-0.149-0.273-0.282-0.382-0.446-0.155-0.225-0.298-0.459-0.419-0.704-0.139-0.246-0.288-0.486-0.421-0.736-0.111-0.246-0.246-0.481-0.362-0.725-0.108-0.216-0.22-0.43-0.29-0.662-0.024-0.22-0.010-0.441 0.057-0.654 0.089-0.215 0.234-0.395 0.358-0.591 0.33-0.462-0.191 0.262 0.162-0.208 0.128-0.17 0.245-0.35 0.406-0.493 0.21-0.228 0.417-0.461 0.579-0.727 0.15-0.244 0.31-0.482 0.451-0.731 0.135-0.253 0.301-0.486 0.439-0.738 0.153-0.236 0.285-0.485 0.412-0.736 0.098-0.179 0.221-0.361 0.267-0.561 0 0 0.583-0.274 0.583-0.274z"></path>
<path d="M18.45 8.263c-0.001 0.198-0.010 0.389-0.053 0.583-0.079 0.328-0.139 0.659-0.219 0.987-0.061 0.33-0.152 0.65-0.276 0.962-0.104 0.258-0.224 0.511-0.352 0.757-0.123 0.244-0.244 0.488-0.369 0.73-0.164 0.332-0.283 0.682-0.414 1.028-0.224 0.595-0.437 1.194-0.663 1.789-0.239 0.562-0.527 1.102-0.825 1.636-0.203 0.379-0.462 0.722-0.746 1.045-0.233 0.241-0.457 0.487-0.67 0.746-0.223 0.258-0.457 0.505-0.675 0.767-0.296 0.352-0.522 0.755-0.739 1.158-0.211 0.394-0.414 0.792-0.618 1.19-0.134 0.245-0.183 0.52-0.266 0.783-0.079 0.234-0.115 0.471-0.069 0.715 0.070 0.269 0.184 0.523 0.324 0.762 0.206 0.325 0.42 0.646 0.653 0.952 0.242 0.348 0.574 0.605 0.926 0.831 0.43 0.241 0.894 0.398 1.375 0.502 0.532 0.142 1.078 0.223 1.625 0.282 0.581 0.044 1.164 0.078 1.746 0.054 0.198-0.014 0.401-0.024 0.595-0.068 0.15-0.034 0.291-0.104 0.432-0.166 0.043-0.024 0.171-0.095 0.129-0.071-1.046 0.593 0.154-0.092 0.248-0.15 0.132-0.081-0.268 0.156-0.406 0.226-0.045 0.022 0.083-0.055 0.124-0.084s0.080-0.063 0.121-0.094c0.259-0.208 0.498-0.44 0.732-0.675 0.213-0.225 0.391-0.478 0.572-0.728 0.164-0.227 0.303-0.467 0.411-0.726 0.125-0.234 0.207-0.485 0.276-0.739 0.077-0.325 0.087-0.66 0.097-0.992 0.011-0.408 0.007-0.816 0.001-1.224-0.004-0.274-0.005-0.549-0.006-0.823 0.004-0.244-0.033-0.487-0.080-0.726-0.079-0.244-0.173-0.483-0.244-0.729-0.091-0.242-0.18-0.484-0.249-0.733-0.054-0.248-0.14-0.489-0.215-0.732-0.052-0.249-0.128-0.491-0.207-0.733-0.064-0.262-0.168-0.511-0.25-0.768-0.107-0.276-0.228-0.544-0.355-0.811-0.117-0.243-0.225-0.491-0.318-0.744-0.099-0.202-0.148-0.421-0.225-0.631-0.074-0.234-0.134-0.472-0.177-0.714-0.065-0.245-0.146-0.486-0.21-0.731-0.051-0.249-0.138-0.49-0.213-0.732-0.049-0.25-0.136-0.488-0.199-0.734-0.054-0.249-0.13-0.489-0.208-0.731-0.069-0.213-0.116-0.433-0.18-0.648-0.067-0.212-0.135-0.424-0.192-0.638-0.007-0.036-0.014-0.072-0.021-0.107 0 0 0.551-0.294 0.551-0.294v0c0.007 0.034 0.013 0.069 0.020 0.103 0.054 0.214 0.118 0.427 0.188 0.636 0.072 0.212 0.109 0.436 0.178 0.649 0.076 0.244 0.157 0.484 0.21 0.735 0.059 0.246 0.151 0.482 0.197 0.732 0.073 0.244 0.163 0.485 0.214 0.735 0.061 0.248 0.144 0.489 0.213 0.735 0.038 0.239 0.1 0.473 0.172 0.703 0.078 0.21 0.132 0.427 0.222 0.633 0.091 0.252 0.199 0.499 0.313 0.741 0.127 0.27 0.247 0.542 0.357 0.819 0.084 0.255 0.194 0.502 0.255 0.764 0.079 0.242 0.157 0.484 0.208 0.734 0.073 0.244 0.162 0.485 0.216 0.734 0.065 0.25 0.155 0.492 0.248 0.733 0.068 0.249 0.163 0.489 0.247 0.734 0.047 0.243 0.089 0.488 0.085 0.736-0.001 0.276-0.001 0.552-0.004 0.828-0.005 0.41-0.007 0.819-0.007 1.229-0.004 0.334-0.005 0.67-0.077 0.997-0.062 0.258-0.144 0.512-0.272 0.746-0.103 0.266-0.243 0.51-0.409 0.742-0.181 0.254-0.361 0.508-0.573 0.738-0.231 0.237-0.471 0.468-0.726 0.679-0.279 0.232-0.562 0.366-0.886 0.568-0.131 0.082 0.535-0.312 0.402-0.233-0.622 0.37-0.44 0.274-0.783 0.449-0.348 0.144-0.64 0.202-1.021 0.201-0.579 0.009-1.159-0.022-1.736-0.071-0.553-0.055-1.105-0.133-1.643-0.277-0.485-0.11-0.955-0.272-1.389-0.517-0.36-0.23-0.701-0.488-0.944-0.845-0.232-0.309-0.452-0.629-0.664-0.953-0.147-0.243-0.271-0.499-0.343-0.775-0.058-0.252-0.026-0.5 0.056-0.744 0.084-0.269 0.137-0.548 0.273-0.798 0.21-0.4 0.427-0.797 0.634-1.198 0.212-0.402 0.431-0.806 0.718-1.161 0.216-0.261 0.443-0.513 0.67-0.764 0.212-0.263 0.437-0.512 0.676-0.752 0.29-0.322 0.56-0.662 0.771-1.042 0.302-0.532 0.597-1.071 0.84-1.633 0.224-0.589 0.439-1.182 0.643-1.779 0.123-0.344 0.234-0.693 0.388-1.024 0.127-0.242 0.248-0.486 0.369-0.731 0.134-0.242 0.248-0.499 0.357-0.753 0.131-0.309 0.229-0.628 0.289-0.959 0.077-0.325 0.137-0.652 0.204-0.979 0.045-0.189 0.061-0.365 0.040-0.56 0 0 0.574-0.293 0.574-0.293z"></path>
<path d="M11.263 4.825c-0.105 0.155-0.185 0.331-0.262 0.503-0.119 0.233-0.228 0.47-0.362 0.695-0.127 0.216-0.256 0.431-0.366 0.657-0.090 0.229-0.191 0.454-0.314 0.667-0.127 0.202-0.213 0.424-0.324 0.635-0.108 0.198-0.137 0.42-0.156 0.641-0.014 0.241-0.011 0.483-0.012 0.724-0.014 0.262 0.015 0.477 0.092 0.726 0.065 0.219 0.162 0.428 0.279 0.624 0.1 0.155 0.215 0.311 0.354 0.434 0.121 0.155 0.286 0.243 0.468 0.306 0.226 0.061 0.461 0.066 0.693 0.071 0.244-0.002 0.49 0.014 0.733-0.011 0.234-0.025 0.466-0.047 0.697-0.091 0.188-0.102 0.634-0.253-0.236 0.143-0.037 0.017 0.063-0.051 0.091-0.080 0.039-0.040 0.126-0.156 0.158-0.198 0.158-0.211 0.229-0.464 0.321-0.707 0.102-0.232 0.153-0.478 0.179-0.728 0.028-0.245 0.029-0.423-0.136-0.617-0.172-0.193-0.333-0.396-0.505-0.588-0.143-0.152-0.275-0.315-0.431-0.454-0.118-0.136-0.208-0.291-0.305-0.443-0.1-0.182-0.124-0.391-0.186-0.587-0.066-0.238-0.111-0.481-0.155-0.724-0.084-0.206-0.152-0.414-0.187-0.635-0.037-0.2-0.049-0.41-0.11-0.605-0.064-0.18-0.148-0.35-0.197-0.535-0.023-0.064-0.050-0.115-0.108-0.148 0 0 0.542-0.34 0.542-0.34v0c0.055 0.055 0.093 0.115 0.118 0.189 0.047 0.184 0.132 0.353 0.194 0.533 0.063 0.198 0.079 0.41 0.111 0.615 0.035 0.22 0.102 0.428 0.184 0.635 0.041 0.24 0.088 0.481 0.152 0.716 0.005 0.014 0.068 0.208 0.071 0.222 0.030 0.119 0.042 0.243 0.113 0.348 0.091 0.148 0.182 0.296 0.295 0.428 0.152 0.145 0.287 0.307 0.425 0.465 0.171 0.195 0.338 0.393 0.511 0.586 0.176 0.214 0.19 0.392 0.158 0.662-0.026 0.255-0.071 0.507-0.174 0.744-0.099 0.243-0.159 0.504-0.314 0.722-0.052 0.068-0.096 0.142-0.152 0.207-0.234 0.275-0.593 0.432-0.93 0.55-0.231 0.042-0.465 0.055-0.697 0.083-0.245 0.016-0.491 0.007-0.737 0.006-0.238-0.007-0.478-0.015-0.708-0.085-0.188-0.071-0.358-0.165-0.486-0.324-0.139-0.131-0.26-0.29-0.358-0.453-0.117-0.202-0.221-0.411-0.282-0.638-0.016-0.049-0.066-0.199-0.076-0.25-0.033-0.162-0.024-0.329-0.026-0.492-0.001-0.242-0.003-0.485 0.009-0.728 0.014-0.227 0.039-0.457 0.144-0.663 0.034-0.066 0.076-0.129 0.108-0.196 0.070-0.148 0.122-0.306 0.215-0.443 0.131-0.208 0.232-0.434 0.319-0.663 0.104-0.229 0.235-0.445 0.361-0.662 0.041-0.070 0.090-0.136 0.129-0.207 0.085-0.156 0.144-0.328 0.236-0.481 0.075-0.173 0.165-0.338 0.231-0.515 0 0 0.596-0.247 0.596-0.247z"></path>
<path d="M8.226 19.538c0 1.3-0.96 2.355-2.146 2.362h-0.001c-0.003 0-0.007 0-0.011 0-1.184 0-2.145-1.043-2.158-2.336v-0.001c-0-0.007-0-0.016-0-0.025 0-1.291 0.947-2.341 2.122-2.362l0.002-0c0.010-0 0.022-0 0.034-0 1.176 0 2.132 1.029 2.158 2.31l0 0.003-2.158 0.050z"></path>
<path d="M19.547 22.99c0 2.034-1.639 3.685-3.665 3.696h-0.001c-0.006 0-0.013 0-0.019 0-2.022 0-3.663-1.632-3.685-3.655l-0-0.002c-0-0.012-0-0.025-0-0.039 0-2.020 1.617-3.662 3.624-3.695l0.003-0c0.017-0 0.038-0 0.058-0 2.008 0 3.641 1.61 3.684 3.614l0 0.004-3.684 0.078z"></path>
<path d="M12.779 10.574c0 0.622-0.606 1.127-1.356 1.13h-0c-0.002 0-0.005 0-0.007 0-0.748 0-1.356-0.499-1.364-1.117v-0.001c-0-0.004-0-0.008-0-0.012 0-0.618 0.598-1.12 1.341-1.13h0.001c0.006-0 0.014-0 0.022-0 0.743 0 1.347 0.492 1.363 1.105l0 0.001-1.363 0.024z"></path>
</symbol>
</defs>
</svg>
