<svg aria-hidden="true" style="position: absolute; width: 0; height: 0; overflow: hidden;" version="1.1" xmlns="http://www.w3.org/2000/svg" xmlns:xlink="http://www.w3.org/1999/xlink">
<defs>
<symbol id="icon-Arrow" viewBox="0 0 18 32">
<title>Arrow</title>

<path fill="black" d="M2.348 12.479l1.324 0.912-1.319-0.924c0 0.002-0.002 0.007-0.005 0.012z"></path>
<path  d="M6.158 23.412v0c5.51-3.675 3.366-8.818-4.231-10.147l4.231 10.147z"></path>
<path d="M8.142 14.767l1.866-0.681-0.084-0.091-1.866 0.681z"></path>
<path d="M9.607 13.884c0.297 0.043 0.499 0.42 0.499 0.42l0.357-0.513"></path>
<path d="M9.967 15.858l1.866-0.681-0.084-0.094-1.866 0.681z"></path>
<path d="M11.433 14.973c0.297 0.043 0.499 0.42 0.499 0.42l0.357-0.513"></path>
<path d="M10.173 17.259l1.869-0.681-0.084-0.091-1.869 0.681z"></path>
<path d="M11.641 16.377c0.297 0.043 0.499 0.42 0.499 0.42l0.357-0.513"></path>
<path d="M10.507 18.871l1.866-0.681-0.084-0.094-1.869 0.681z"></path>
<path d="M11.972 17.986c0.297 0.043 0.499 0.42 0.499 0.42l0.357-0.513"></path>
<path d="M14.033 16.377l1.866-0.681-0.084-0.091-1.869 0.681z"></path>
<path d="M15.499 15.494c0.297 0.043 0.499 0.42 0.499 0.42l0.357-0.513"></path>
<path d="M12.373 14.637l1.866-0.681-0.084-0.091-1.866 0.681z"></path>
<path d="M13.839 13.755c0.297 0.043 0.499 0.42 0.499 0.42l0.357-0.513"></path>
<path d="M10.754 13.416l1.869-0.681-0.084-0.091-1.869 0.681z"></path>
<path d="M12.222 12.534c0.297 0.043 0.499 0.42 0.499 0.42l0.357-0.513"></path>
<path d="M12.788 15.676l1.866-0.681-0.084-0.091-1.866 0.681z"></path>
<path d="M14.254 14.793c0.297 0.043 0.499 0.42 0.499 0.42l0.357-0.513"></path>
<path d="M11.377 18.039l1.866-0.681-0.084-0.091-1.866 0.681z"></path>
<path d="M12.843 17.156c0.297 0.043 0.499 0.42 0.499 0.42l0.357-0.513"></path>
<path d="M14.53 17.545l1.869-0.681-0.084-0.091-1.869 0.681z"></path>
<path d="M15.995 16.662c0.297 0.043 0.499 0.42 0.499 0.42l0.357-0.513"></path>
<path d="M10.049 20.481l1.871-0.684-0.084-0.091-1.871 0.681z"></path>
<path d="M11.517 19.596c0.297 0.043 0.499 0.42 0.499 0.42l0.357-0.513"></path>
<path d="M13.119 19.104l1.869-0.681-0.084-0.091-1.869 0.681z"></path>
<path d="M14.585 18.219c0.297 0.043 0.499 0.42 0.499 0.42l0.357-0.513"></path>
<path d="M9.303 21.831l1.869-0.681-0.084-0.094-1.869 0.681z"></path>
<path d="M10.768 20.946c0.297 0.043 0.499 0.42 0.499 0.42l0.357-0.513"></path>
<path d="M12.579 20.375l1.869-0.681-0.084-0.091-1.869 0.681z"></path>
<path d="M14.047 19.493c0.297 0.043 0.499 0.42 0.499 0.42l0.357-0.513"></path>
<path d="M14.614 20.402l1.866-0.681-0.084-0.091-1.866 0.681z"></path>
<path d="M16.079 19.519c0.297 0.043 0.499 0.42 0.499 0.42l0.357-0.513"></path>
<path d="M8.972 12.663l1.866-0.681-0.084-0.091-1.866 0.681z"></path>
<path d="M10.437 11.78c0.297 0.043 0.499 0.42 0.499 0.42l0.357-0.513"></path>
<path d="M8.972 12.69l1.866-0.681-0.084-0.091-1.866 0.681z"></path>
<path d="M10.437 11.807c0.297 0.043 0.499 0.42 0.499 0.42l0.357-0.513"></path>
</symbol>
<symbol id="icon-DualWield" viewBox="0 0 18 32">
<title>DualWield</title>
<path fill="none" d="M0.758 17.298c-0.050-4.579 3.622-8.333 8.201-8.384s8.333 3.622 8.384 8.201c0 0.043 0 0.089 0 0.089s0.002 0.425-0.043 0.852c-0.345 3.222-3.054 5.464-3.054 5.464-0.509 0.422-2.459 1.989-5.105 1.979-3.761-0.014-8.329-3.217-8.384-8.201z"></path>
<path d="M9.804 17.466l-3.733 5.623 0.321 0.266 3.836-4.975-0.425-0.914z"></path>
<path d="M5.366 22.376l1.619 1.372-0.271 0.386-1.298-1.139z"></path>
<path d="M5.891 23.067l-0.391 0.888c-0.026 0.058-0.022 0.127 0.012 0.18l0.048 0.079c0.082 0.139 0.285 0.125 0.35-0.022l0.321-0.727z"></path>
<path d="M14.335 13.049l-7.94 10.303 7.405-12.795z"></path>
<path d="M7.767 17.917l4.004 5.263-0.23 0.326-3.992-4.577 0.218-1.012z"></path>
<path d="M12.255 22.333l-1.151 1.67 0.285 0.362 0.919-1.384z"></path>
<path d="M11.92 23.129l0.473 0.873c0.026 0.050 0.034 0.108 0.017 0.161v0c-0.055 0.177-0.295 0.201-0.384 0.038l-0.329-0.607z"></path>
<path d="M3.274 14.028l8.264 9.475-8.199-12.145z"></path>
</symbol>
<symbol id="icon-Shield" viewBox="0 0 32 32">
<title>Shield</title>

<path d="M5.029 4.324l11.53 27.609 9.198-28.574-20.728 0.965z"></path>
<path fill="#e6e7e8" style="fill: var(--color1, #e6e7e8)" d="M22.419 6.449l0.101 0.067c5.079 3.396 6.319 10.333 2.729 15.277l-1.143 1.575c-3.442 4.741-10.044 5.864-14.857 2.521v0c-4.745-3.294-6.046-9.741-2.952-14.616l1.042-1.642c3.241-5.107 10.052-6.543 15.081-3.181z"></path>
<path d="M29.252 24.405l2.63-7.341-6.144-13.692"></path>
<path d="M5.029 4.324l-4.441 15.795 3.079 5.693"></path>
<path d="M9.339 12.252l13.318-0.416c1.145-0.036 1.502 1.351 0.642 2.498l-4.968 8.184c-0.66 0.881-2.197 3.184-2.764 2.623l-7.877-9.795c-0.933-0.92 0.202-3.047 1.649-3.093z"></path>
</symbol>
<symbol id="icon-SpecialPower" viewBox="0 0 32 32">
<title>SpecialPower</title>
<path d="M10.932 15.986l0.713-2.843-1.358-5.195"></path>
<path d="M5.241 8.519l-1.237 6.107 0.692 2.154"></path>
<path d="M27.405 24.824l0.713-2.843-1.358-5.195"></path>
<path d="M21.714 17.357l-1.237 6.107 0.692 2.154"></path>
<path d="M17.225 24.037l0.713-2.843-1.358-5.195"></path>
<path d="M11.534 16.571l-1.237 6.107 0.692 2.154"></path>
<path d="M22.824 13.348l0.713-2.843-1.358-5.195"></path>
<path d="M17.133 5.882l-1.237 6.107 0.692 2.154"></path>
<path d="M30.552 17.744l0.713-2.843-1.358-5.195"></path>
<path d="M24.861 10.278l-1.237 6.107 0.692 2.154"></path>
<path d="M13.384 27.647l0.713-2.843-1.358-5.195"></path>
<path d="M7.693 20.18l-1.237 6.107 0.692 2.154"></path>
<path d="M8.341 19.595l0.713-2.843-1.358-5.195"></path>
<path d="M2.65 12.129l-1.237 6.107 0.692 2.154"></path>
<path d="M10.289 1.382h10.319c0.728 0 1.319 0.59 1.319 1.319s-0.59 1.319-1.319 1.319h-10.319c-0.728 0-1.319-0.59-1.319-1.319s0.59-1.319 1.319-1.319z"></path>
<path fill="#231f20" style="fill: var(--color4, #231f20)" d="M4.105 5.509c1.943 0.376 3.69-0.736 5.038-2.017 0.065-0.062-0.033-0.16-0.098-0.098-1.308 1.243-3.014 2.347-4.905 1.981-0.087-0.017-0.124 0.117-0.037 0.134z"></path>
<path fill="#231f20" style="fill: var(--color4, #231f20)" d="M27.751 5.741l-5.738-3.062c-0.079-0.042-0.149 0.078-0.070 0.12l5.738 3.062c0.079 0.042 0.149-0.078 0.070-0.12z"></path>
<path fill="#fff" style="fill: var(--color5, #fff)" d="M13.175 1.204l4.101-0.093c0.353-0.008 0.466 0.416 0.204 0.767l-1.51 2.496c-0.201 0.268-0.669 0.972-0.845 0.797l-2.452-3.022c-0.287-0.285 0.057-0.935 0.502-0.945z"></path>
<path fill="#231f20" style="fill: var(--color4, #231f20)" d="M4.216 5.606c0.43 0.273 0.892 0.558 1.411 0.611 0.467 0.046 0.869-0.154 1.262-0.38 0.413-0.238 0.875-0.526 1.365-0.341 0.416 0.157 0.703 0.538 1.094 0.745 0.683 0.363 1.388-0.015 1.992-0.359 0.345-0.197 0.694-0.416 1.083-0.513 0.504-0.127 0.86 0.080 1.246 0.39 0.291 0.231 0.595 0.4 0.976 0.379 0.324-0.017 0.633-0.143 0.923-0.285 0.597-0.292 1.331-0.896 2.039-0.71 0.47 0.124 0.671 0.599 1.034 0.874 0.34 0.258 0.758 0.267 1.145 0.118 0.905-0.349 1.425-1.296 2.386-1.537 0.259-0.065 0.548-0.068 0.778 0.086s0.324 0.411 0.433 0.652c0.19 0.424 0.497 0.697 0.986 0.614 0.576-0.098 1.052-0.47 1.645-0.521 0.061-0.005 0.133-0.009 0.205-0.009 0.579 0 1.111 0.2 1.532 0.534l-0.005-0.004c0.069 0.055 0.168-0.043 0.098-0.098-0.44-0.352-1.006-0.566-1.621-0.566-0.354 0-0.691 0.070-0.998 0.198l0.017-0.006c-0.468 0.192-1.182 0.628-1.581 0.084-0.24-0.328-0.278-0.761-0.642-0.999-0.705-0.463-1.635 0.185-2.148 0.652-0.391 0.358-0.847 0.761-1.385 0.864-0.624 0.12-0.915-0.35-1.296-0.733-1.217-1.223-2.549 0.932-3.857 0.628-0.463-0.107-0.734-0.549-1.169-0.714-0.32-0.121-0.664-0.079-0.978 0.036-0.723 0.263-1.356 0.899-2.146 0.955-0.521 0.037-0.875-0.302-1.259-0.598-0.377-0.291-0.782-0.446-1.253-0.292-0.478 0.156-0.864 0.509-1.346 0.661-0.686 0.213-1.338-0.181-1.897-0.537-0.075-0.046-0.145 0.072-0.070 0.12z"></path>
</symbol>
<symbol id="icon-Sword" viewBox="0 0 32 32">
<title>Sword</title>
<path d="M31.919 14.46l-11.978 6.453c-0.208-0.586-0.278-1.751-0.486-2.337-0.471-0.206-1.081 0.167-1.551-0.039l-0.254-2.136-1.759-0.21 0.046-2.104-2.268-0.484-0.648-2.941-2.040-0.195-0.413-2.582c-0.795-0.139-2.075-0.393-2.87-0.532l-0.463-2.453-2.106-0.648-0.87 0.87-2.445 3.48 13.653 14.996-8.811 5.091 3.888 2.083 7.701-3.518 3.98 3.517 2.181-1.389 2.17-1.759-3.147-3.332 8.475-6.503z"></path>
<path d="M17.028 24.132l3.332-1.922c0.062-0.036 0.136-0.057 0.215-0.057 0.237 0 0.429 0.191 0.43 0.428v2.252c-0 0.237-0.193 0.43-0.43 0.43-0.015 0-0.030-0.001-0.044-0.002l0.002 0-3.332-0.33c-0.216-0.024-0.383-0.206-0.383-0.427 0-0.157 0.084-0.294 0.209-0.369l0.002-0.001z"></path>
</symbol>
</defs>
</svg>
